<?xml version="1.0" encoding="UTF-8" standalone="no"?>
<!-- Created with Inkscape (http://www.inkscape.org/) -->

<svg
   version="1.1"
   id="svg2"
   width="605"
   height="591"
   viewBox="0 0 605 591"
   sodipodi:docname="keio-logo.svg"
   inkscape:version="1.2.2 (b0a8486541, 2022-12-01)"
   xmlns:inkscape="http://www.inkscape.org/namespaces/inkscape"
   xmlns:sodipodi="http://sodipodi.sourceforge.net/DTD/sodipodi-0.dtd"
   xmlns="http://www.w3.org/2000/svg"
   xmlns:svg="http://www.w3.org/2000/svg">
  <defs
     id="defs6" />
  <sodipodi:namedview
     id="namedview4"
     pagecolor="#ffffff"
     bordercolor="#000000"
     borderopacity="0.25"
     inkscape:showpageshadow="2"
     inkscape:pageopacity="0.0"
     inkscape:pagecheckerboard="0"
     inkscape:deskcolor="#d1d1d1"
     showgrid="false"
     inkscape:zoom="0.70710678"
     inkscape:cx="246.07316"
     inkscape:cy="393.85848"
     inkscape:window-width="1854"
     inkscape:window-height="1131"
     inkscape:window-x="0"
     inkscape:window-y="0"
     inkscape:window-maximized="1"
     inkscape:current-layer="g8" />
  <g
     inkscape:groupmode="layer"
     inkscape:label="Image"
     id="g8"
     transform="translate(379.34451,194.05074)">
    <g
       id="g311"
       transform="translate(-379.34451,-194.05074)">
      <path
         style="fill:#fefefe"
         d="M 0,295.5 V 0 H 302.5 605 V 295.5 591 H 302.5 0 Z m 154.67026,233.70689 c 5.35342,-1.72501 13.62456,-6.20711 17.82944,-9.6617 9.86479,-8.10456 121.0204,-104.73642 121.18859,-105.35391 0.19455,-0.71429 -107.77344,-94.38633 -109.42635,-94.9373 -1.03086,-0.34362 -97.835529,110.98932 -102.347919,117.70811 -6.130983,9.12881 -9.519094,22.77548 -8.502406,34.24608 2.63067,29.68006 26.629475,55.33817 55.697305,59.54826 5.92186,0.85771 20.9105,-0.0509 25.56134,-1.54954 z m 326.13692,0.68506 c 2.58105,-0.60942 8.8592,-3.09634 13.95144,-5.52649 7.48311,-3.57112 10.76885,-5.9105 17.13382,-12.19895 6.54402,-6.46534 8.63721,-9.37668 12.38333,-17.22351 5.71163,-11.96391 6.72923,-16.38698 6.70314,-29.13582 -0.0235,-11.48237 -2.39179,-20.22157 -7.65753,-28.25689 C 521.76962,435.18237 452.1,354.34981 368.5,257.92239 284.9,161.49497 216.03242,81.982555 215.46094,81.228135 c -0.87657,-1.157158 -2.44046,-1.106881 -10,0.321483 C 193.78757,83.755284 165.69448,83.059321 149.5,80.163271 126.94336,76.12948 106.17366,70.115639 89.572901,62.811453 l -8.9271,-3.927843 -3.818388,3.818388 -3.818388,3.818388 32.859225,32.847914 c 29.82627,29.816 33.05035,32.74563 34.92975,31.73981 5.70235,-3.05181 15.94783,0.27196 20.202,6.55378 3.68285,5.43819 3.54415,13.62484 -0.31658,18.68653 -3.73533,4.89726 -6.38245,6.51152 -11.92317,7.27096 C 139.13443,164.93875 130,156.89365 130,147.0964 c 0,-2.32534 0.49865,-5.15962 1.10811,-6.2984 1.00582,-1.8794 -1.92381,-5.10348 -31.73981,-34.92975 l -32.847914,-32.859225 -3.8236,3.8236 -3.8236,3.8236 2.667101,5.921888 C 69.238615,103.67107 76.49607,128.34771 80.192807,150 c 2.566589,15.03287 3.48719,41.95554 1.778101,52 -0.701878,4.125 -1.319964,8.68567 -1.373525,10.13482 -0.08492,2.29754 22.368297,22.11985 175.402617,154.8502 96.525,83.71846 177.79816,153.76628 180.60701,155.66182 8.66268,5.84597 17.28993,8.3077 29.20017,8.33207 5.66895,0.0116 12.41895,-0.47753 15,-1.08696 z M 470.10459,261.75 c 26.16427,-22.6875 49.20299,-42.68443 51.19716,-44.43762 l 3.62576,-3.18763 -1.54044,-7.81237 c -5.64373,-28.6224 3.12563,-82.79999 19.06297,-117.772195 l 3.34321,-7.33618 -3.91947,-3.827253 -3.91946,-3.827254 -32.50272,32.502712 -32.50271,32.50272 1.13437,3.25406 C 477.62046,151.95582 468.80869,164 457.84784,164 c -5.30774,0 -11.57686,-3.68147 -14.36197,-8.43391 -6.87777,-11.73601 1.80135,-26.32546 15.01413,-25.2385 2.75,0.22623 5.675,0.69918 6.5,1.051 1.05299,0.44904 11.18214,-9.04691 33.98976,-31.864992 l 32.48977,-32.50466 -3.98977,-3.934697 -3.98976,-3.934698 -10.44037,4.49272 C 477.48834,78.939362 427.14975,86.780431 398.87965,81.417685 l -8.34129,-1.582316 -2.43573,2.832316 c -1.33965,1.557773 -19.34828,22.347785 -40.01918,46.200025 -20.6709,23.85225 -37.58345,43.93707 -37.58345,44.63294 0,1.20895 110.44637,129.4494 111.5166,129.48309 0.28412,0.009 21.92372,-18.54624 48.08799,-41.23374 z"
         id="path315" />
      <path
         style="fill:#f0c300"
         d="m 129.10892,530.75643 c -29.06783,-4.21009 -53.066635,-29.8682 -55.697305,-59.54826 -1.016688,-11.4706 2.371423,-25.11727 8.502406,-34.24608 4.51239,-6.71879 101.317059,-118.05173 102.347919,-117.70811 1.65291,0.55097 109.6209,94.22301 109.42635,94.9373 -0.16819,0.61749 -111.3238,97.24935 -121.18859,105.35391 -4.20488,3.45459 -12.47602,7.93669 -17.82944,9.6617 -4.65084,1.49863 -19.63948,2.40725 -25.56134,1.54954 z m 319.49809,-2.23088 c -3.79114,-1.33775 -9.19114,-3.98317 -12,-5.87871 C 433.79816,520.7513 352.525,450.70348 256,366.98502 102.96568,234.25467 80.512466,214.43236 80.597383,212.13482 80.650944,210.68567 81.26903,206.125 81.970908,202 83.679997,191.95554 82.759396,165.03287 80.192807,150 76.49607,128.34771 69.238615,103.67107 61.540287,86.578113 l -2.667101,-5.921888 3.8236,-3.8236 3.8236,-3.8236 32.847914,32.859225 c 29.816,29.82627 32.74563,33.05035 31.73981,34.92975 -0.60946,1.13878 -1.10811,3.97306 -1.10811,6.2984 0,9.79725 9.13443,17.84235 18.76025,16.52298 5.54072,-0.75944 8.18784,-2.3737 11.92317,-7.27096 3.86073,-5.06169 3.99943,-13.24834 0.31658,-18.68653 -4.25417,-6.28182 -14.49965,-9.60559 -20.202,-6.55378 -1.8794,1.00582 -5.10348,-1.92381 -34.92975,-31.73981 l -32.859225,-32.847914 3.818388,-3.818388 3.818388,-3.818388 8.9271,3.927843 C 106.17366,70.115639 126.94336,76.12948 149.5,80.163271 c 16.19448,2.89605 44.28757,3.592013 55.96094,1.386347 7.55954,-1.428364 9.12343,-1.478641 10,-0.321483 0.57148,0.75442 69.43906,80.266835 153.03906,176.694255 83.6,96.42742 153.26962,177.25998 154.82138,179.6279 5.26574,8.03532 7.63403,16.77452 7.65753,28.25689 0.0261,12.74884 -0.99151,17.17191 -6.70314,29.13582 -3.74612,7.84683 -5.83931,10.75817 -12.38333,17.22351 -6.36497,6.28845 -9.65071,8.62783 -17.13382,12.19895 -11.77426,5.61897 -16.2416,6.63946 -28.95144,6.61345 -8.3246,-0.017 -11.63305,-0.48894 -17.20017,-2.45336 z M 366,238.86667 c -30.525,-35.25544 -55.5,-64.67015 -55.5,-65.36602 0,-0.69587 16.91255,-20.78069 37.58345,-44.63294 20.6709,-23.85224 38.67953,-44.642252 40.01918,-46.200025 l 2.43573,-2.832316 8.34129,1.582316 c 28.2701,5.362746 78.60869,-2.478323 114.17998,-17.785422 l 10.44037,-4.49272 3.98976,3.934698 3.98977,3.934697 -32.48977,32.50466 C 476.18214,122.33168 466.05299,131.82763 465,131.37859 c -0.825,-0.35182 -3.75,-0.82477 -6.5,-1.051 -13.21278,-1.08696 -21.8919,13.50249 -15.01413,25.2385 2.78511,4.75244 9.05423,8.43391 14.36197,8.43391 10.96085,0 19.77262,-12.04418 16.23542,-22.19101 l -1.13437,-3.25406 32.50271,-32.50272 32.50272,-32.502712 3.91946,3.827254 3.91947,3.827253 -3.34321,7.33618 C 526.5127,123.51239 517.74334,177.68998 523.38707,206.31238 l 1.54044,7.81237 -3.62576,3.18763 c -21.62682,19.01345 -98.89151,85.68375 -99.28515,85.67136 -0.28413,-0.009 -25.4916,-28.86163 -56.0166,-64.11707 z"
         id="path313" />
    </g>
  </g>
</svg>
