<?xml version="1.0" encoding="UTF-8" standalone="no"?>
<svg
   version="1.1"
   id="svg2"
   xml:space="preserve"
   width="115.7073"
   height="160.14735"
   sodipodi:docname="sciencetokyo-logo.svg"
   inkscape:version="1.4.2 (1:1.4.2+202505120737+ebf0e940d0)"
   xmlns:inkscape="http://www.inkscape.org/namespaces/inkscape"
   xmlns:sodipodi="http://sodipodi.sourceforge.net/DTD/sodipodi-0.dtd"
   xmlns="http://www.w3.org/2000/svg"
   xmlns:svg="http://www.w3.org/2000/svg"
   xmlns:rdf="http://www.w3.org/1999/02/22-rdf-syntax-ns#"
   xmlns:cc="http://creativecommons.org/ns#"
   xmlns:dc="http://purl.org/dc/elements/1.1/"><metadata
     id="metadata8"><rdf:RDF><cc:Work
         rdf:about=""><dc:format>image/svg+xml</dc:format><dc:type
           rdf:resource="http://purl.org/dc/dcmitype/StillImage" /><dc:title /></cc:Work></rdf:RDF></metadata><defs
     id="defs6"><clipPath
       clipPathUnits="userSpaceOnUse"
       id="clipPath76"><path
         d="M 0,842 H 595 V 0 H 0 Z"
         id="path74" /></clipPath><clipPath
       id="clipPath76-3"
       clipPathUnits="userSpaceOnUse"><path
         id="path74-6"
         d="M 0,842 H 595 V 0 H 0 Z" /></clipPath><style
       id="style1">
      .cls-1 {
        fill: none;
      }

      .cls-1, .cls-2 {
        stroke-width: 0px;
      }

      .cls-2 {
        fill: #111;
      }
    </style></defs><sodipodi:namedview
     fit-margin-bottom="0"
     fit-margin-right="0"
     fit-margin-left="0"
     fit-margin-top="0"
     inkscape:document-rotation="0"
     pagecolor="#ffffff"
     bordercolor="#666666"
     borderopacity="1"
     objecttolerance="10"
     gridtolerance="10"
     guidetolerance="10"
     inkscape:pageopacity="0"
     inkscape:pageshadow="2"
     inkscape:window-width="1434"
     inkscape:window-height="931"
     id="namedview4"
     showgrid="false"
     inkscape:snap-global="true"
     inkscape:zoom="0.6034286"
     inkscape:cx="224.55018"
     inkscape:cy="199.69223"
     inkscape:window-x="0"
     inkscape:window-y="0"
     inkscape:window-maximized="1"
     inkscape:current-layer="g3"
     inkscape:showpageshadow="2"
     inkscape:pagecheckerboard="0"
     inkscape:deskcolor="#d1d1d1" /><g
     id="g10"
     inkscape:groupmode="layer"
     inkscape:label="vi_manual"
     transform="matrix(1.3333333,0,0,-1.3333333,-199.06872,614.36365)"><g
       fill="#2d3979"
       id="g3"
       transform="matrix(1.0580968,0,0,-1.0580968,149.30155,462.88481)"><path
         d="m 82.011715,1.996096 c -34.95703,0 -64.0664,10.10156 -80.41406,23.79297 -0.93359,0.79687 -1.59766,1.85937 -1.59766,3.32421 v 25.25391 c 0,-0.53125 0.39844,-0.92969 1.19922,-1.59375 22.46094,-18.07812 51.70313,-23.52734 80.8125,-23.52734 z m 0,0"
         id="path2" /><path
         d="m 82.015625,84.621096 v -25.33594 c 0,0.66406 -1.19922,0.92969 -3.05859,1.0625 -30.17579,1.86328 -59.01954,11.16797 -78.95704,25.39062 v 29.773444 c 18.54297,-12.80078 45.48047,-23.765624 71.03125,-27.382814 0.3125,-0.043 6.55469,-0.95313 7.33594,-1.07031 0.94922,-0.14453 2.91797,-0.35547 3.48828,-1.60157 0.1211,-0.25781 0.16016,-0.60156 0.16016,-0.83593"
         id="path3" /></g><path
       d="m 236.07788,400.15537 c 0,0.70264 -0.70264,1.40529 -1.82687,2.24846 -14.69762,10.25031 -33.11926,17.5082 -54.35146,20.90567 -10.52724,-3.8108 -20.43036,-9.10128 -29.32912,-16.2641 -0.8473,-0.70264 -1.26889,-1.12422 -1.26889,-1.68634 0,-0.56211 0.28106,-0.70264 1.40529,-0.84318 13.85859,-1.47554 29.95737,-5.15408 44.76658,-11.52746 11.88293,3.17429 24.50983,5.24915 37.37232,6.04273 1.96739,0.14052 3.23215,0.42158 3.23215,1.12422"
       fill="#758bbc"
       id="path4"
       style="stroke-width:1.0581" /></g></svg>
