<?xml version="1.0" encoding="UTF-8" standalone="no"?>
<!-- Generator: Adobe Illustrator 24.0.1, SVG Export Plug-In . SVG Version: 6.00 Build 0)  -->

<svg
   xmlns:dc="http://purl.org/dc/elements/1.1/"
   xmlns:cc="http://creativecommons.org/ns#"
   xmlns:rdf="http://www.w3.org/1999/02/22-rdf-syntax-ns#"
   xmlns:svg="http://www.w3.org/2000/svg"
   xmlns="http://www.w3.org/2000/svg"
   xmlns:sodipodi="http://sodipodi.sourceforge.net/DTD/sodipodi-0.dtd"
   xmlns:inkscape="http://www.inkscape.org/namespaces/inkscape"
   version="1.1"
   id="レイヤー_1"
   x="0px"
   y="0px"
   viewBox="0 0 30 30"
   xml:space="preserve"
   sodipodi:docname="tokyotech-logo.svg"
   width="30"
   height="30"
   inkscape:version="0.92.5 (2060ec1f9f, 2020-04-08)"><metadata
   id="metadata73"><rdf:RDF><cc:Work
       rdf:about=""><dc:format>image/svg+xml</dc:format><dc:type
         rdf:resource="http://purl.org/dc/dcmitype/StillImage" /><dc:title></dc:title></cc:Work></rdf:RDF></metadata><defs
   id="defs71" /><sodipodi:namedview
   pagecolor="#ffffff"
   bordercolor="#666666"
   borderopacity="1"
   objecttolerance="10"
   gridtolerance="10"
   guidetolerance="10"
   inkscape:pageopacity="0"
   inkscape:pageshadow="2"
   inkscape:window-width="1920"
   inkscape:window-height="1017"
   id="namedview69"
   showgrid="false"
   inkscape:zoom="7.9428571"
   inkscape:cx="33.639292"
   inkscape:cy="8.8073408"
   inkscape:window-x="0"
   inkscape:window-y="0"
   inkscape:window-maximized="1"
   inkscape:current-layer="レイヤー_1" />
<path
   d="M 0,30 H 30 V 0 H 0 Z M 29.1,29.1 H 0.9 L 3.8,26.2 V 3.8 L 0.9,0.9 H 29.2 L 26.3,3.8 V 26.3 Z M 22.2,20 c 0.1,0.1 0.1,0.2 0,0.2 0,0 -0.1,0 -0.2,-0.1 v 0 0 c -0.5,-1 -1,-2.1 -1.1,-2.6 -0.1,-0.5 -0.3,-1.1 -0.3,-2.9 0,-2 -0.5,-2.4 -2.3,-2.5 -2,-0.2 -2.2,1.1 -2.4,1.4 -0.2,1.2 -0.4,2.2 -0.2,2.6 0.3,0.4 0.4,0.6 0.7,1.3 0.6,1.1 1.5,4.2 1.9,6.1 0,0.2 0.1,0.2 0,0.2 0,0 -0.1,0 -0.2,-0.2 -0.6,-1.4 -1.6,-3.8 -1.9,-4.5 -0.5,-1.1 -1.1,-1.4 -1.3,-1.4 v 0 0 c -0.2,0 -0.8,0.2 -1.3,1.4 -0.3,0.8 -1.4,3.1 -1.9,4.5 -0.1,0.2 -0.1,0.2 -0.2,0.2 0,0 0,-0.1 0,-0.2 0.4,-1.7 1.3,-4.9 1.8,-6 0.3,-0.6 0.4,-0.9 0.7,-1.3 0.2,-0.3 0.1,-1.4 -0.2,-2.6 C 13.7,13.2 13.5,12 11.4,12.2 9.8,12.3 9.3,12.6 9.2,14.7 9.2,16.4 9,17.1 8.9,17.6 8.8,18 8.4,19.2 7.8,20.2 v 0 0 c -0.1,0.1 -0.1,0.1 -0.2,0.1 0,0 0,-0.1 0,-0.2 C 7.7,19.5 8,18.2 8,17 8,16 7.9,12.9 8,12.3 8.4,11.7 8.2,10.7 9.9,10.2 9.9,10.2 11,9.9 12,9.7 12.4,9.6 13.1,9.6 13.4,9.1 13.7,8.6 13.8,7.3 14.4,6.6 14.5,6.5 14.5,6.4 14.6,6.3 14.9,6 15,5.9 15,5.9 c 0,0 0.1,0 0.2,0.2 0,0.2 0.1,0.3 0.2,0.3 0.5,0.6 0.6,1.8 1,2.6 0.2,0.5 0.9,0.5 1.4,0.6 1.1,0.2 2.1,0.5 2.1,0.5 1.7,0.5 1.6,1.4 1.7,2 0.1,0.6 0,3.9 0,4.7 -0.1,1.3 0.3,2.6 0.6,3.2 z"
   id="path2"
   inkscape:connector-curvature="0" />
































</svg>